<?xml version="1.0" standalone="no"?><!DOCTYPE svg PUBLIC "-//W3C//DTD SVG 1.1//EN" "http://www.w3.org/Graphics/SVG/1.1/DTD/svg11.dtd"><svg t="1557769701809" class="icon" style="" viewBox="0 0 1024 1024" version="1.1" xmlns="http://www.w3.org/2000/svg" p-id="2067" xmlns:xlink="http://www.w3.org/1999/xlink" width="200" height="200"><defs><style type="text/css"></style></defs><path d="M841.747119 939.999864c-58.425667 0-105.95824-47.532573-105.95824-105.95824l0-14.853289-452.546933 0 0 14.853289c0 58.425667-47.532573 105.95824-105.95824 105.95824S71.326489 892.467291 71.326489 834.041624l0-14.853289L41.371246 819.188334c-17.075911 0-30.450523-13.361309-30.450523-30.417777l0-181.217295c0-32.414247 12.574387-62.842257 35.406394-85.679381 22.832008-22.836101 53.250808-35.413558 85.652775-35.413558l1.233084 0 46.657646-186.111768c16.244986-66.054415 80.062454-115.916033 148.427494-115.916033l45.056172 0L373.35429 94.037746c0-17.055444 13.375635-30.416753 30.450523-30.416753L615.226013 63.620993c17.074887 0 30.450523 13.360286 30.450523 30.416753l0 90.394776 45.056172 0c68.365041 0 132.182508 49.861618 148.44489 115.982548l46.64025 186.045253 1.232061 0c32.402991 0 62.821791 12.577456 85.652775 35.413558 22.833031 22.837124 35.407418 53.266158 35.407418 85.679381l0 181.217295c0 17.056468-13.375635 30.417777-30.451546 30.417777l-29.954219 0 0 14.853289C947.704336 892.467291 900.172787 939.999864 841.747119 939.999864zM252.54276 788.489148l513.945305 0 0 45.552475c0 41.498136 33.760918 75.259054 75.259054 75.259054s75.258031-33.760918 75.258031-75.259054l0-45.552475 60.400648 0 0.005117-180.934862c0-49.843198-40.535205-90.393753-90.361007-90.393753l-25.185612 0L809.383014 307.813574c-13.003152-52.866045-64.004733-92.681866-118.650307-92.681866l-75.755358 0L614.977349 94.320179 404.058592 94.320179l-0.005117 120.81153-75.755358 0c-54.646598 0-105.648179 39.815821-118.633934 92.615351l-52.498678 209.41245L131.979894 517.15951c-49.824779 0-90.359984 40.550555-90.359984 90.393753l0 180.934862 60.405765 0 0 45.552475c0 41.498136 33.760918 75.259054 75.259054 75.259054s75.259054-33.760918 75.259054-75.259054L252.543783 788.489148zM841.747119 743.716432c-50.099025 0-90.857311-40.773635-90.857311-90.89108s40.758286-90.89108 90.857311-90.89108c50.098002 0 90.856287 40.773635 90.856287 90.89108S891.845121 743.716432 841.747119 743.716432zM841.747119 592.632435c-33.171494 0-60.158125 27.001981-60.158125 60.191894s26.986631 60.191894 60.158125 60.191894c33.17047 0 60.157101-27.001981 60.157101-60.191894S874.91759 592.632435 841.747119 592.632435zM177.284729 743.716432c-50.099025 0-90.856287-40.773635-90.856287-90.89108s40.758286-90.89108 90.856287-90.89108 90.857311 40.773635 90.857311 90.89108S227.382731 743.716432 177.284729 743.716432zM177.284729 592.632435c-33.171494 0-60.157101 27.001981-60.157101 60.191894s26.986631 60.191894 60.157101 60.191894 60.158125-27.001981 60.158125-60.191894S210.455199 592.632435 177.284729 592.632435zM768.891811 517.160533 250.139014 517.160533l46.840818-187.886181c3.315512-12.127202 18.827811-24.030299 31.318286-24.030299l362.434589 0c12.491499 0 28.003797 11.903098 31.318286 24.031323l0.086981 0.333598L768.891811 517.160533zM289.430902 486.461347l440.170045 0L692.732248 338.563926c-0.812505-0.899486-2.298346-2.066055-3.340071-2.62171l-359.753527 0c-1.042749 0.554632-2.527566 1.722224-3.340071 2.62171L289.430902 486.461347z" p-id="2068" fill="#ffffff"></path></svg>