<?xml version="1.0" standalone="no"?><!DOCTYPE svg PUBLIC "-//W3C//DTD SVG 1.1//EN" "http://www.w3.org/Graphics/SVG/1.1/DTD/svg11.dtd"><svg t="1557765894465" class="icon" style="" viewBox="0 0 1024 1024" version="1.1" xmlns="http://www.w3.org/2000/svg" p-id="534" xmlns:xlink="http://www.w3.org/1999/xlink" width="200" height="200"><defs><style type="text/css"></style></defs><path d="M995.555556 1024h-56.888889c-15.644444 0-28.444444-12.8-28.444445-28.444444V512c0-219.591111-178.631111-398.222222-398.222222-398.222222S113.777778 292.408889 113.777778 512v483.555556c0 15.644444-12.8 28.444444-28.444445 28.444444H28.444444c-15.644444 0-28.444444-12.8-28.444444-28.444444V512C0 229.660444 229.688889 0 512 0s512 229.660444 512 512v483.555556c0 15.644444-12.8 28.444444-28.444444 28.444444zM199.111111 682.666667h28.444445c62.577778 0 113.777778 51.2 113.777777 113.777777v113.777778c0 62.577778-51.2 113.777778-113.777777 113.777778H199.111111c-15.644444 0-28.444444-12.8-28.444444-28.444444V711.111111c0-15.644444 12.8-28.444444 28.444444-28.444444z m597.333333 0h28.444445c15.644444 0 28.444444 12.8 28.444444 28.444444v284.444445c0 15.644444-12.8 28.444444-28.444444 28.444444h-28.444445c-62.577778 0-113.777778-51.2-113.777777-113.777778v-113.777778c0-62.577778 51.2-113.777778 113.777777-113.777777z" p-id="535" fill="#ffffff"></path></svg>